<svg width="205" height="855" viewBox="0 0 205 855" fill="none" xmlns="http://www.w3.org/2000/svg">
<g clip-path="url(#clip0_376_1446)">
<path d="M-143.971 -181.886C-214.695 -174.91 -342.702 -134.826 -288.935 -30.2992C-221.727 100.359 114.614 277.659 -190.685 264.803C-495.984 251.946 -501.409 354.499 -322.69 472.6C-143.971 590.7 200.207 719.265 -143.971 785.94C-488.148 852.614 -679.525 939.919 -718.404 1119.61" stroke="#2E2E2E"/>
<path d="M-134.794 -178.096C-205.518 -171.12 -333.525 -131.035 -279.758 -26.5087C-212.55 104.149 123.791 281.45 -181.508 268.593C-486.807 255.737 -492.232 358.29 -313.513 476.39C-134.794 594.491 209.384 723.056 -134.794 789.73C-478.971 856.405 -670.348 943.71 -709.226 1123.4" stroke="#2E2E2E"/>
<path d="M-125.616 -174.306C-196.34 -167.329 -324.347 -127.245 -270.581 -22.7183C-203.373 107.94 132.969 285.24 -172.33 272.383C-477.63 259.527 -483.054 362.08 -304.335 480.181C-125.616 598.281 218.561 726.846 -125.616 793.521C-469.794 860.195 -661.171 947.5 -700.049 1127.19" stroke="#2E2E2E"/>
<path d="M-116.438 -170.515C-187.163 -163.539 -315.169 -123.454 -261.403 -18.928C-194.195 111.73 142.147 289.03 -163.152 276.174C-468.452 263.317 -473.877 365.87 -295.157 483.971C-116.438 602.071 227.739 730.637 -116.438 797.311C-460.616 863.986 -651.993 951.29 -690.871 1130.98" stroke="#2E2E2E"/>
<path d="M-107.262 -166.725C-177.986 -159.748 -305.992 -119.664 -252.226 -15.1376C-185.018 115.52 151.324 292.821 -153.976 279.964C-459.275 267.108 -464.7 369.661 -285.981 487.761C-107.262 605.862 236.916 734.427 -107.262 801.101C-451.439 867.776 -642.816 955.081 -681.694 1134.77" stroke="#2E2E2E"/>
<path d="M-98.084 -162.935C-168.808 -155.958 -296.815 -115.874 -243.048 -11.3473C-175.84 119.311 160.501 296.611 -144.798 283.755C-450.097 270.898 -455.522 373.451 -276.803 491.552C-98.084 609.652 246.093 738.217 -98.084 804.892C-442.261 871.566 -633.639 958.871 -672.517 1138.56" stroke="#2E2E2E"/>
<path d="M-88.9068 -159.144C-159.631 -152.168 -287.638 -112.083 -233.871 -7.55685C-166.663 123.101 169.678 300.401 -135.621 287.545C-440.92 274.688 -446.345 377.242 -267.626 495.342C-88.9068 613.443 255.271 742.008 -88.9068 808.682C-433.084 875.357 -624.461 962.661 -663.34 1142.35" stroke="#2E2E2E"/>
<path d="M-79.7291 -155.354C-150.453 -148.377 -278.46 -108.293 -224.693 -3.76626C-157.485 126.892 178.856 304.192 -126.443 291.336C-431.742 278.479 -437.167 381.032 -258.448 499.133C-79.7291 617.233 264.448 745.798 -79.7291 812.473C-423.906 879.147 -615.284 966.452 -654.162 1146.14" stroke="#2E2E2E"/>
<path d="M-70.5519 -151.563C-141.276 -144.587 -269.283 -104.502 -215.516 0.0241454C-148.308 130.682 188.033 307.982 -117.266 295.126C-422.565 282.269 -427.99 384.823 -249.271 502.923C-70.5519 621.024 273.626 749.589 -70.5519 816.263C-414.729 882.938 -606.106 970.242 -644.985 1149.93" stroke="#2E2E2E"/>
<path d="M-61.3747 -147.773C-132.099 -140.796 -260.105 -100.712 -206.339 3.81449C-139.131 134.473 197.21 311.773 -108.089 298.916C-413.388 286.06 -418.813 388.613 -240.094 506.713C-61.3747 624.814 282.803 753.379 -61.3747 820.054C-405.552 886.728 -596.929 974.033 -635.807 1153.72" stroke="#2E2E2E"/>
<path d="M-52.1975 -143.982C-122.922 -137.006 -250.928 -96.9214 -197.162 7.60502C-129.954 138.263 206.388 315.563 -98.9116 302.707C-404.211 289.85 -409.636 392.403 -230.917 510.504C-52.1975 628.604 291.98 757.17 -52.1975 823.844C-396.375 890.519 -587.752 977.823 -626.63 1157.52" stroke="#2E2E2E"/>
<path d="M-43.0197 -140.192C-113.744 -133.216 -241.751 -93.1313 -187.984 11.3952C-120.776 142.053 215.565 319.354 -89.7338 306.497C-395.033 293.64 -400.458 396.194 -221.739 514.294C-43.0197 632.395 301.158 760.96 -43.0197 827.634C-387.197 894.309 -578.574 981.613 -617.452 1161.31" stroke="#2E2E2E"/>
<path d="M-33.8422 -136.402C-104.566 -129.425 -232.573 -89.3408 -178.807 15.1856C-111.599 145.844 224.743 323.144 -80.5563 310.287C-385.856 297.431 -391.28 399.984 -212.561 518.085C-33.8422 636.185 310.335 764.75 -33.8422 831.425C-378.02 898.099 -569.397 985.404 -608.275 1165.1" stroke="#2E2E2E"/>
<path d="M-24.665 -132.611C-95.3892 -125.635 -223.396 -85.5504 -169.629 18.976C-102.421 149.634 233.92 326.934 -71.3791 314.078C-376.678 301.221 -382.103 403.774 -203.384 521.875C-24.665 639.976 319.512 768.541 -24.665 835.215C-368.842 901.89 -560.22 989.194 -599.098 1168.89" stroke="#2E2E2E"/>
<path d="M-15.4875 -128.821C-86.2117 -121.844 -214.218 -81.7597 -160.452 22.7667C-93.2439 153.425 243.098 330.725 -62.2016 317.869C-367.501 305.012 -372.926 407.565 -194.207 525.666C-15.4875 643.766 328.69 772.331 -15.4875 839.006C-359.665 905.68 -551.042 992.985 -589.92 1172.68" stroke="#2E2E2E"/>
<path d="M-6.31035 -125.031C-77.0345 -118.054 -205.041 -77.9697 -151.275 26.5567C-84.0667 157.215 252.275 334.515 -53.0244 321.659C-358.324 308.802 -363.748 411.355 -185.029 529.456C-6.31035 647.556 337.867 776.121 -6.31035 842.796C-350.488 909.47 -541.865 996.775 -580.743 1176.47" stroke="#2E2E2E"/>
<path d="M2.86714 -121.24C-67.857 -114.263 -195.864 -74.1791 -142.097 30.3474C-74.8892 161.005 261.452 338.306 -43.847 325.449C-349.146 312.593 -354.571 415.146 -175.852 533.246C2.86714 651.347 347.045 779.912 2.86714 846.586C-341.31 913.261 -532.687 1000.57 -571.566 1180.26" stroke="#2E2E2E"/>
<path d="M12.0446 -117.45C-58.6795 -110.473 -186.686 -70.3888 -132.92 34.1377C-65.7117 164.796 270.63 342.096 -34.6695 329.239C-339.969 316.383 -345.394 418.936 -166.674 537.037C12.0446 655.137 356.222 783.702 12.0446 850.377C-332.133 917.051 -523.51 1004.36 -562.388 1184.05" stroke="#2E2E2E"/>
<path d="M21.2219 -113.659C-49.5023 -106.683 -177.509 -66.5982 -123.743 37.9282C-56.5345 168.586 279.807 345.887 -25.4922 333.03C-330.791 320.174 -336.216 422.727 -157.497 540.827C21.2219 658.928 365.399 787.493 21.2219 854.167C-322.956 920.842 -514.333 1008.15 -553.211 1187.84" stroke="#2E2E2E"/>
<path d="M30.3994 -109.869C-40.3248 -102.892 -168.331 -62.808 -114.565 41.7185C-47.357 172.377 288.984 349.677 -16.3147 336.82C-321.614 323.964 -327.039 426.517 -148.32 544.617C30.3994 662.718 374.577 791.283 30.3994 857.958C-313.778 924.632 -505.155 1011.94 -544.033 1191.63" stroke="#2E2E2E"/>
<path d="M39.5765 -106.078C-31.1476 -99.1018 -159.154 -59.0174 -105.388 45.509C-38.1798 176.167 298.162 353.467 -7.13755 340.611C-312.437 327.754 -317.862 430.307 -139.143 548.408C39.5765 666.508 383.754 795.074 39.5765 861.748C-304.601 928.423 -495.978 1015.73 -534.856 1195.42" stroke="#2E2E2E"/>
<path d="M48.754 -102.288C-21.9701 -95.3114 -149.977 -55.227 -96.2103 49.2994C-29.0023 179.957 307.339 357.258 2.03994 344.401C-303.259 331.545 -308.684 434.098 -129.965 552.198C48.754 670.299 392.931 798.864 48.754 865.538C-295.423 932.213 -486.8 1019.52 -525.679 1199.21" stroke="#2E2E2E"/>
<path d="M57.9312 -98.4977C-12.7929 -91.5213 -140.8 -51.4369 -87.0332 53.0896C-19.8251 183.748 316.516 361.048 11.2171 348.191C-294.082 335.335 -299.507 437.888 -120.788 555.989C57.9312 674.089 402.109 802.654 57.9312 869.329C-286.246 936.003 -477.623 1023.31 -516.501 1203" stroke="#2E2E2E"/>
</g>
<defs>
<clipPath id="clip0_376_1446">
<rect width="873" height="1304" fill="white" transform="matrix(-1 0 0 1 205 -216)"/>
</clipPath>
</defs>
</svg>
