<svg width="440" height="772" viewBox="0 0 440 772" fill="none" xmlns="http://www.w3.org/2000/svg">
<g clip-path="url(#clip0_376_1132)">
<path d="M240.091 -64C302.871 -56.3451 416.499 -12.3624 368.772 102.329C309.113 245.694 10.5517 440.237 281.558 426.13C552.564 412.023 557.379 524.55 398.735 654.136C240.091 783.722 -65.4264 924.79 240.091 997.949C545.608 1071.11 715.489 1166.9 750 1364.07" stroke="#2E2E2E"/>
<path d="M231.944 -59.8411C294.724 -52.1862 408.352 -8.20351 360.625 106.488C300.967 249.853 2.40503 444.396 273.411 430.289C544.417 416.182 549.233 528.709 390.589 658.295C231.944 787.881 -73.573 928.949 231.944 1002.11C537.462 1075.27 707.342 1171.06 741.853 1368.23" stroke="#2E2E2E"/>
<path d="M223.798 -55.6818C286.578 -48.0269 400.206 -4.04421 352.479 110.648C292.821 254.012 -5.74107 448.555 265.265 434.449C536.271 420.342 541.087 532.868 382.442 662.454C223.798 792.04 -81.7191 933.109 223.798 1006.27C529.316 1079.43 699.196 1175.22 733.707 1372.39" stroke="#2E2E2E"/>
<path d="M215.652 -51.5231C278.432 -43.8682 392.06 0.114486 344.333 114.806C284.674 258.171 -13.8877 452.714 257.118 438.607C528.125 424.5 532.94 537.027 374.296 666.613C215.652 796.199 -89.8657 937.267 215.652 1010.43C521.169 1083.58 691.049 1179.38 725.56 1376.55" stroke="#2E2E2E"/>
<path d="M207.505 -47.3639C270.285 -39.709 383.913 4.27367 336.186 118.965C276.527 262.33 -22.0343 456.873 248.972 442.766C519.978 428.66 524.793 541.186 366.149 670.772C207.505 800.358 -98.0124 941.426 207.505 1014.59C513.022 1087.74 682.903 1183.54 717.414 1380.71" stroke="#2E2E2E"/>
<path d="M199.359 -43.2048C262.139 -35.55 375.767 8.43272 328.04 123.125C268.381 266.489 -30.1807 461.032 240.825 446.925C511.832 432.819 516.647 545.345 358.003 674.931C199.359 804.517 -106.159 945.586 199.359 1018.74C504.876 1091.9 674.756 1187.7 709.268 1384.87" stroke="#2E2E2E"/>
<path d="M191.212 -39.0455C253.992 -31.3907 367.62 12.592 319.893 127.284C260.234 270.649 -38.3273 465.192 232.679 451.085C503.685 436.978 508.501 549.505 349.856 679.091C191.212 808.677 -114.305 949.745 191.212 1022.9C496.729 1096.06 666.61 1191.86 701.121 1389.02" stroke="#2E2E2E"/>
<path d="M183.065 -34.887C245.845 -27.2321 359.474 16.7506 311.746 131.442C252.088 274.807 -46.4739 469.35 224.532 455.243C495.538 441.137 500.354 553.663 341.71 683.249C183.065 812.835 -122.452 953.903 183.065 1027.06C488.583 1100.22 658.463 1196.02 692.974 1393.18" stroke="#2E2E2E"/>
<path d="M174.919 -30.7277C237.699 -23.0728 351.327 20.9099 303.6 135.602C243.941 278.966 -54.6203 473.509 216.386 459.403C487.392 445.296 492.208 557.822 333.563 687.408C174.919 816.994 -130.598 958.063 174.919 1031.22C480.436 1104.38 650.317 1200.18 684.828 1397.34" stroke="#2E2E2E"/>
<path d="M166.772 -26.5688C229.552 -18.914 343.181 25.0687 295.453 139.761C235.795 283.125 -62.7669 477.668 208.239 463.561C479.245 449.455 484.061 561.981 325.417 691.567C166.772 821.153 -138.745 962.222 166.772 1035.38C472.29 1108.54 642.17 1204.33 676.681 1401.5" stroke="#2E2E2E"/>
<path d="M158.626 -22.4097C221.406 -14.7548 335.034 29.2279 287.307 143.92C227.648 287.284 -70.9133 481.827 200.093 467.721C471.099 453.614 475.915 566.14 317.27 695.726C158.626 825.312 -146.891 966.381 158.626 1039.54C464.143 1112.7 634.024 1208.49 668.535 1405.66" stroke="#2E2E2E"/>
<path d="M150.479 -18.2509C213.259 -10.596 326.888 33.3867 279.161 148.079C219.502 291.443 -79.0599 485.986 191.946 471.879C462.952 457.773 467.768 570.299 309.124 699.885C150.479 829.471 -155.038 970.54 150.479 1043.7C455.997 1116.86 625.877 1212.65 660.388 1409.82" stroke="#2E2E2E"/>
<path d="M142.333 -14.0918C205.113 -6.43693 318.741 37.5458 271.014 152.238C211.355 295.602 -87.2067 490.145 183.799 476.039C454.806 461.932 459.621 574.458 300.977 704.044C142.333 833.63 -163.185 974.699 142.333 1047.86C447.85 1121.02 617.73 1216.81 652.241 1413.98" stroke="#2E2E2E"/>
<path d="M134.186 -9.93274C196.966 -2.27787 310.595 41.7048 262.868 156.397C203.209 299.761 -95.3528 494.304 175.653 480.198C446.659 466.091 451.475 578.617 292.831 708.203C134.186 837.789 -171.331 978.858 134.186 1052.02C439.704 1125.17 609.584 1220.97 644.095 1418.14" stroke="#2E2E2E"/>
<path d="M126.04 -5.77368C188.82 1.88119 302.448 45.8639 254.721 160.556C195.062 303.92 -103.499 498.463 167.507 484.357C438.513 470.25 443.328 582.776 284.684 712.362C126.04 841.948 -179.477 983.017 126.04 1056.18C431.557 1129.33 601.438 1225.13 635.949 1422.3" stroke="#2E2E2E"/>
<path d="M117.893 -1.61487C180.673 6.04 294.302 50.0227 246.575 164.714C186.916 308.079 -111.646 502.622 159.36 488.515C430.367 474.409 435.182 586.935 276.538 716.521C117.893 846.107 -187.624 987.175 117.893 1060.33C423.411 1133.49 593.291 1229.29 627.802 1426.46" stroke="#2E2E2E"/>
<path d="M109.747 2.54443C172.527 10.1993 286.155 54.182 238.428 168.874C178.769 312.239 -119.793 506.782 151.213 492.675C422.22 478.568 427.035 591.095 268.391 720.68C109.747 850.266 -195.771 991.335 109.747 1064.49C415.264 1137.65 585.144 1233.45 619.656 1430.61" stroke="#2E2E2E"/>
<path d="M101.6 6.70349C164.38 14.3584 278.008 58.341 230.281 173.033C170.623 316.398 -127.939 510.941 143.067 496.834C414.073 482.727 418.889 595.254 260.245 724.84C101.6 854.426 -203.917 995.494 101.6 1068.65C407.118 1141.81 576.998 1237.61 611.509 1434.77" stroke="#2E2E2E"/>
<path d="M93.4539 10.8625C156.234 18.5174 269.862 62.5001 222.135 177.192C162.476 320.557 -136.085 515.1 134.921 500.993C405.927 486.886 410.742 599.413 252.098 728.999C93.4539 858.585 -212.063 999.653 93.4539 1072.81C398.971 1145.97 568.852 1241.77 603.363 1438.93" stroke="#2E2E2E"/>
<path d="M85.3075 15.0215C148.087 22.6764 261.716 66.659 213.989 181.351C154.33 324.716 -144.232 519.259 126.774 505.152C397.781 491.045 402.596 603.572 243.952 733.158C85.3075 862.744 -220.21 1003.81 85.3075 1076.97C390.825 1150.13 560.705 1245.92 595.216 1443.09" stroke="#2E2E2E"/>
<path d="M77.1606 19.1803C139.941 26.8352 253.569 70.8179 205.842 185.51C146.183 328.874 -152.379 523.417 118.628 509.311C389.634 495.204 394.449 607.73 235.805 737.316C77.1606 866.902 -228.357 1007.97 77.1606 1081.13C382.678 1154.29 552.558 1250.08 587.07 1447.25" stroke="#2E2E2E"/>
<path d="M69.014 23.3395C131.794 30.9943 245.422 74.977 197.695 189.669C138.036 333.034 -160.525 527.577 110.481 513.47C381.487 499.363 386.303 611.89 227.658 741.476C69.014 871.062 -236.503 1012.13 69.014 1085.29C374.531 1158.45 544.412 1254.24 578.923 1451.41" stroke="#2E2E2E"/>
<path d="M60.8677 27.4985C123.648 35.1534 237.276 79.1361 189.549 193.828C129.89 337.193 -168.672 531.736 102.335 517.629C373.341 503.522 378.156 616.049 219.512 745.635C60.8677 875.221 -244.65 1016.29 60.8677 1089.45C366.385 1162.61 536.265 1258.4 570.777 1455.57" stroke="#2E2E2E"/>
<path d="M52.721 31.6578C115.501 39.3127 229.129 83.2954 181.402 197.987C121.743 341.352 -176.818 535.895 94.1879 521.788C365.194 507.681 370.01 620.208 211.365 749.794C52.721 879.38 -252.796 1020.45 52.721 1093.61C358.238 1166.77 528.119 1262.56 562.63 1459.73" stroke="#2E2E2E"/>
<path d="M44.5747 35.8164C107.355 43.4713 220.983 87.454 173.256 202.146C113.597 345.511 -184.965 540.054 86.0416 525.947C357.048 511.84 361.863 624.366 203.219 753.952C44.5747 883.538 -260.943 1024.61 44.5747 1097.77C350.092 1170.92 519.972 1266.72 554.484 1463.89" stroke="#2E2E2E"/>
<path d="M36.4281 39.9757C99.208 47.6306 212.836 91.6133 165.109 206.305C105.45 349.67 -193.111 544.213 77.8949 530.106C348.901 515.999 353.717 628.526 195.072 758.112C36.4281 887.698 -269.089 1028.77 36.4281 1101.92C341.945 1175.08 511.826 1270.88 546.337 1468.05" stroke="#2E2E2E"/>
<path d="M28.2815 44.1346C91.0614 51.7895 204.69 95.7722 156.963 210.464C97.3038 353.829 -201.258 548.372 69.7483 534.265C340.755 520.158 345.57 632.685 186.926 762.271C28.2815 891.857 -277.236 1032.93 28.2815 1106.08C333.799 1179.24 503.679 1275.04 538.19 1472.21" stroke="#2E2E2E"/>
<path d="M20.1351 48.2937C82.9151 55.9486 196.543 99.9313 148.816 214.623C89.1574 357.988 -209.404 552.531 61.602 538.424C332.608 524.317 337.424 636.844 178.779 766.43C20.1351 896.016 -285.382 1037.08 20.1351 1110.24C325.652 1183.4 495.533 1279.2 530.044 1476.36" stroke="#2E2E2E"/>
<path d="M11.9885 52.4526C74.7684 60.1075 188.397 104.09 140.67 218.782C81.0108 362.147 -217.551 556.69 53.4553 542.583C324.462 528.476 329.277 641.003 170.633 770.589C11.9885 900.175 -293.529 1041.24 11.9885 1114.4C317.506 1187.56 487.386 1283.36 521.897 1480.52" stroke="#2E2E2E"/>
<path d="M3.84209 56.6118C66.6221 64.2667 180.25 108.249 132.523 222.941C72.8644 366.306 -225.697 560.849 45.309 546.742C316.315 532.635 321.131 645.162 162.486 774.748C3.84209 904.334 -301.675 1045.4 3.84209 1118.56C309.359 1191.72 479.24 1287.51 513.751 1484.68" stroke="#2E2E2E"/>
<path d="M-4.30452 60.7709C58.4755 68.4257 172.104 112.408 124.377 227.1C64.7178 370.465 -233.844 565.008 37.1624 550.901C308.169 536.794 312.984 649.321 154.34 778.907C-4.30452 908.493 -309.822 1049.56 -4.30452 1122.72C301.213 1195.88 471.093 1291.67 505.604 1488.84" stroke="#2E2E2E"/>
<path d="M-12.4509 64.9296C50.3291 72.5845 163.957 116.567 116.23 231.259C56.5714 374.624 -241.99 569.167 29.016 555.06C300.022 540.953 304.838 653.48 146.193 783.066C-12.4509 912.652 -317.968 1053.72 -12.4509 1126.88C293.066 1200.04 462.947 1295.83 497.458 1493" stroke="#2E2E2E"/>
</g>
<defs>
<clipPath id="clip0_376_1132">
<rect width="648" height="1231" fill="white" transform="translate(-143 -64)"/>
</clipPath>
</defs>
</svg>
