<svg width="648" height="1043" viewBox="0 0 648 1043" fill="none" xmlns="http://www.w3.org/2000/svg">
<g clip-path="url(#clip0_335_698)">
<path d="M383.091 -64C445.871 -56.3451 559.499 -12.3624 511.772 102.329C452.113 245.694 153.552 440.237 424.558 426.13C695.564 412.023 700.379 524.55 541.735 654.136C383.091 783.722 77.5736 924.79 383.091 997.949C688.608 1071.11 858.489 1166.9 893 1364.07" stroke="#2E2E2E"/>
<path d="M374.944 -59.8411C437.724 -52.1862 551.352 -8.20351 503.625 106.488C443.967 249.853 145.405 444.396 416.411 430.289C687.417 416.182 692.233 528.709 533.589 658.295C374.944 787.881 69.427 928.949 374.944 1002.11C680.462 1075.27 850.342 1171.06 884.853 1368.23" stroke="#2E2E2E"/>
<path d="M366.798 -55.6818C429.578 -48.0269 543.206 -4.04421 495.479 110.648C435.82 254.012 137.259 448.555 408.265 434.449C679.271 420.342 684.087 532.868 525.442 662.454C366.798 792.04 61.2808 933.109 366.798 1006.27C672.315 1079.43 842.196 1175.22 876.707 1372.39" stroke="#2E2E2E"/>
<path d="M358.652 -51.5231C421.432 -43.8682 535.06 0.114486 487.333 114.806C427.674 258.171 129.112 452.714 400.118 438.607C671.125 424.5 675.94 537.027 517.296 666.613C358.652 796.199 53.1342 937.267 358.652 1010.43C664.169 1083.58 834.049 1179.38 868.56 1376.55" stroke="#2E2E2E"/>
<path d="M350.505 -47.3639C413.285 -39.709 526.913 4.27367 479.186 118.965C419.527 262.33 120.966 456.873 391.972 442.766C662.978 428.66 667.793 541.186 509.149 670.772C350.505 800.358 44.9876 941.426 350.505 1014.59C656.022 1087.74 825.903 1183.54 860.414 1380.71" stroke="#2E2E2E"/>
<path d="M342.359 -43.2048C405.139 -35.55 518.767 8.43272 471.04 123.125C411.381 266.489 112.819 461.032 383.825 446.925C654.832 432.819 659.647 545.345 501.003 674.931C342.359 804.517 36.8413 945.586 342.359 1018.74C647.876 1091.9 817.756 1187.7 852.267 1384.87" stroke="#2E2E2E"/>
<path d="M334.212 -39.0455C396.992 -31.3907 510.62 12.592 462.893 127.284C403.234 270.649 104.673 465.192 375.679 451.085C646.685 436.978 651.5 549.505 492.856 679.091C334.212 808.677 28.6947 949.745 334.212 1022.9C639.729 1096.06 809.61 1191.86 844.121 1389.02" stroke="#2E2E2E"/>
<path d="M326.065 -34.887C388.845 -27.2321 502.474 16.7506 454.746 131.442C395.088 274.807 96.5261 469.35 367.532 455.243C638.538 441.137 643.354 553.663 484.71 683.249C326.065 812.835 20.548 953.903 326.065 1027.06C631.583 1100.22 801.463 1196.02 835.974 1393.18" stroke="#2E2E2E"/>
<path d="M317.919 -30.7277C380.699 -23.0728 494.327 20.9099 446.6 135.602C386.941 278.966 88.3797 473.509 359.386 459.403C630.392 445.296 635.208 557.822 476.563 687.408C317.919 816.994 12.4017 958.063 317.919 1031.22C623.436 1104.38 793.317 1200.18 827.828 1397.34" stroke="#2E2E2E"/>
<path d="M309.772 -26.5688C372.552 -18.914 486.181 25.0687 438.453 139.761C378.795 283.125 80.2331 477.668 351.239 463.561C622.245 449.455 627.061 561.981 468.417 691.567C309.772 821.153 4.25508 962.222 309.772 1035.38C615.29 1108.54 785.17 1204.33 819.681 1401.5" stroke="#2E2E2E"/>
<path d="M301.626 -22.4097C364.406 -14.7548 478.034 29.2279 430.307 143.92C370.648 287.284 72.0867 481.827 343.093 467.721C614.099 453.614 618.915 566.14 460.27 695.726C301.626 825.312 -3.89129 966.381 301.626 1039.54C607.143 1112.7 777.024 1208.49 811.535 1405.66" stroke="#2E2E2E"/>
<path d="M293.479 -18.2509C356.259 -10.596 469.888 33.3867 422.161 148.079C362.502 291.443 63.9401 485.986 334.946 471.879C605.952 457.773 610.768 570.299 452.124 699.885C293.479 829.471 -12.0379 970.54 293.479 1043.7C598.997 1116.86 768.877 1212.65 803.388 1409.82" stroke="#2E2E2E"/>
<path d="M285.333 -14.0918C348.113 -6.43693 461.741 37.5458 414.014 152.238C354.355 295.602 55.7933 490.145 326.799 476.039C597.806 461.932 602.621 574.458 443.977 704.044C285.333 833.63 -20.1847 974.699 285.333 1047.86C590.85 1121.02 760.73 1216.81 795.241 1413.98" stroke="#2E2E2E"/>
<path d="M277.186 -9.93274C339.966 -2.27787 453.595 41.7048 405.868 156.397C346.209 299.761 47.6472 494.304 318.653 480.198C589.66 466.091 594.475 578.617 435.831 708.203C277.186 837.789 -28.3309 978.858 277.186 1052.02C582.704 1125.17 752.584 1220.97 787.095 1418.14" stroke="#2E2E2E"/>
<path d="M269.04 -5.77368C331.82 1.88119 445.448 45.8639 397.721 160.556C338.062 303.92 39.5006 498.463 310.507 484.357C581.513 470.25 586.328 582.776 427.684 712.362C269.04 841.948 -36.4775 983.017 269.04 1056.18C574.557 1129.33 744.438 1225.13 778.949 1422.3" stroke="#2E2E2E"/>
<path d="M260.893 -1.61487C323.673 6.04 437.302 50.0227 389.575 164.714C329.916 308.079 31.3542 502.622 302.36 488.515C573.367 474.409 578.182 586.935 419.538 716.521C260.893 846.107 -44.6238 987.175 260.893 1060.33C566.411 1133.49 736.291 1229.29 770.802 1426.46" stroke="#2E2E2E"/>
<path d="M252.747 2.54443C315.527 10.1993 429.155 54.182 381.428 168.874C321.769 312.239 23.2074 506.782 294.214 492.675C565.22 478.568 570.035 591.095 411.391 720.68C252.747 850.266 -52.7707 991.335 252.747 1064.49C558.264 1137.65 728.144 1233.45 762.656 1430.61" stroke="#2E2E2E"/>
<path d="M244.6 6.70349C307.38 14.3584 421.008 58.341 373.281 173.033C313.623 316.398 15.061 510.941 286.067 496.834C557.073 482.727 561.889 595.254 403.245 724.84C244.6 854.426 -60.917 995.494 244.6 1068.65C550.118 1141.81 719.998 1237.61 754.509 1434.77" stroke="#2E2E2E"/>
<path d="M236.454 10.8625C299.234 18.5174 412.862 62.5001 365.135 177.192C305.476 320.557 6.91463 515.1 277.921 500.993C548.927 486.886 553.742 599.413 395.098 728.999C236.454 858.585 -69.0634 999.653 236.454 1072.81C541.971 1145.97 711.852 1241.77 746.363 1438.93" stroke="#2E2E2E"/>
<path d="M228.308 15.0215C291.088 22.6764 404.716 66.659 356.989 181.351C297.33 324.716 -1.23173 519.259 269.774 505.152C540.781 491.045 545.596 603.572 386.952 733.158C228.308 862.744 -77.2098 1003.81 228.308 1076.97C533.825 1150.13 703.705 1245.92 738.216 1443.09" stroke="#2E2E2E"/>
<path d="M220.161 19.1803C282.941 26.8352 396.569 70.8179 348.842 185.51C289.183 328.874 -9.37858 523.417 261.628 509.311C532.634 495.204 537.449 607.73 378.805 737.316C220.161 866.902 -85.3566 1007.97 220.161 1081.13C525.678 1154.29 695.558 1250.08 730.07 1447.25" stroke="#2E2E2E"/>
<path d="M212.014 23.3395C274.794 30.9943 388.422 74.977 340.695 189.669C281.036 333.034 -17.5253 527.577 253.481 513.47C524.487 499.363 529.302 611.89 370.658 741.476C212.014 871.062 -93.5033 1012.13 212.014 1085.29C517.531 1158.45 687.412 1254.24 721.923 1451.41" stroke="#2E2E2E"/>
<path d="M203.868 27.4985C266.648 35.1534 380.276 79.1361 332.549 193.828C272.89 337.193 -25.6717 531.736 245.334 517.629C516.341 503.522 521.156 616.049 362.512 745.635C203.868 875.221 -101.65 1016.29 203.868 1089.45C509.385 1162.61 679.265 1258.4 713.777 1455.57" stroke="#2E2E2E"/>
<path d="M195.721 31.6578C258.501 39.3127 372.129 83.2954 324.402 197.987C264.743 341.352 -33.8183 535.895 237.188 521.788C508.194 507.681 513.01 620.208 354.365 749.794C195.721 879.38 -109.796 1020.45 195.721 1093.61C501.238 1166.77 671.119 1262.56 705.63 1459.73" stroke="#2E2E2E"/>
<path d="M187.575 35.8164C250.355 43.4713 363.983 87.454 316.256 202.146C256.597 345.511 -41.9646 540.054 229.042 525.947C500.048 511.84 504.863 624.366 346.219 753.952C187.575 883.538 -117.943 1024.61 187.575 1097.77C493.092 1170.92 662.972 1266.72 697.484 1463.89" stroke="#2E2E2E"/>
<path d="M179.428 39.9757C242.208 47.6306 355.836 91.6133 308.109 206.305C248.45 349.67 -50.1112 544.213 220.895 530.106C491.901 515.999 496.717 628.526 338.072 758.112C179.428 887.698 -126.089 1028.77 179.428 1101.92C484.945 1175.08 654.826 1270.88 689.337 1468.05" stroke="#2E2E2E"/>
<path d="M171.281 44.1346C234.061 51.7895 347.69 95.7722 299.963 210.464C240.304 353.829 -58.2579 548.372 212.748 534.265C483.754 520.158 488.57 632.685 329.926 762.271C171.281 891.857 -134.236 1032.93 171.281 1106.08C476.799 1179.24 646.679 1275.04 681.19 1472.21" stroke="#2E2E2E"/>
<path d="M163.135 48.2937C225.915 55.9486 339.543 99.9313 291.816 214.623C232.157 357.988 -66.4042 552.531 204.602 538.424C475.608 524.317 480.424 636.844 321.779 766.43C163.135 896.016 -142.382 1037.08 163.135 1110.24C468.652 1183.4 638.533 1279.2 673.044 1476.36" stroke="#2E2E2E"/>
<path d="M154.988 52.4526C217.768 60.1075 331.397 104.09 283.67 218.782C224.011 362.147 -74.5508 556.69 196.455 542.583C467.462 528.476 472.277 641.003 313.633 770.589C154.988 900.175 -150.529 1041.24 154.988 1114.4C460.506 1187.56 630.386 1283.36 664.897 1480.52" stroke="#2E2E2E"/>
<path d="M146.842 56.6118C209.622 64.2667 323.25 108.249 275.523 222.941C215.864 366.306 -82.6972 560.849 188.309 546.742C459.315 532.635 464.131 645.162 305.486 774.748C146.842 904.334 -158.675 1045.4 146.842 1118.56C452.359 1191.72 622.24 1287.51 656.751 1484.68" stroke="#2E2E2E"/>
<path d="M138.695 60.7709C201.475 68.4257 315.104 112.408 267.377 227.1C207.718 370.465 -90.8438 565.008 180.162 550.901C451.169 536.794 455.984 649.321 297.34 778.907C138.695 908.493 -166.822 1049.56 138.695 1122.72C444.213 1195.88 614.093 1291.67 648.604 1488.84" stroke="#2E2E2E"/>
<path d="M130.549 64.9296C193.329 72.5845 306.957 116.567 259.23 231.259C199.571 374.624 -98.9902 569.167 172.016 555.06C443.022 540.953 447.838 653.48 289.193 783.066C130.549 912.652 -174.968 1053.72 130.549 1126.88C436.066 1200.04 605.947 1295.83 640.458 1493" stroke="#2E2E2E"/>
</g>
<defs>
<clipPath id="clip0_335_698">
<rect width="648" height="1231" fill="white" transform="translate(0 -64)"/>
</clipPath>
</defs>
</svg>
