<svg width="20" height="20" viewBox="0 0 20 20" fill="none" xmlns="http://www.w3.org/2000/svg">
<path d="M4.81486 16C4.81486 16.3978 4.97094 16.7794 5.24877 17.0607C5.5266 17.342 5.90342 17.5 6.29634 17.5H13.7037C14.0967 17.5 14.4735 17.342 14.7513 17.0607C15.0291 16.7794 15.1852 16.3978 15.1852 16V7H16.6667V5.5H13.7037V4C13.7037 3.60218 13.5477 3.22064 13.2698 2.93934C12.992 2.65804 12.6152 2.5 12.2223 2.5H7.77782C7.3849 2.5 7.00808 2.65804 6.73025 2.93934C6.45242 3.22064 6.29634 3.60218 6.29634 4V5.5H3.33337V7H4.81486V16ZM7.77782 4H12.2223V5.5H7.77782V4ZM7.03708 7H13.7037V16H6.29634V7H7.03708Z" fill="#141414"/>
<path d="M7.5 8.33337H9.16667V14.1667H7.5V8.33337ZM10.8333 8.33337H12.5V14.1667H10.8333V8.33337Z" fill="#141414"/>
</svg>
