<svg width="30" height="30" viewBox="0 0 30 30" fill="none" xmlns="http://www.w3.org/2000/svg">
<path d="M21.25 3.75C24.0114 3.75 26.25 5.98858 26.25 8.75V21.25C26.25 24.0114 24.0114 26.25 21.25 26.25H8.75C5.98858 26.25 3.75 24.0114 3.75 21.25V8.75C3.75 5.98858 5.98858 3.75 8.75 3.75H21.25ZM15 10C12.2386 10 10 12.2386 10 15C10.0001 17.7614 12.2386 20 15 20C17.7614 20 19.9999 17.7614 20 15C20 12.2386 17.7614 10 15 10ZM21.875 6.875C21.1847 6.875 20.6251 7.43468 20.625 8.125C20.625 8.81537 21.1846 9.375 21.875 9.375C22.5654 9.375 23.125 8.81537 23.125 8.125C23.1249 7.43468 22.5653 6.875 21.875 6.875Z" fill="white"/>
</svg>
