<svg width="198" height="50" viewBox="0 0 198 50" fill="none" xmlns="http://www.w3.org/2000/svg">
<path d="M81.9346 38.3232C83.5113 38.3232 84.7165 38.7522 85.5498 39.6104C86.6625 40.6233 87.2187 42.1404 87.2188 44.1611C87.2188 46.1422 86.6626 47.66 85.5498 48.7129C84.7165 49.571 83.5113 50 81.9346 50C80.3578 50 79.1527 49.571 78.3193 48.7129C77.2016 47.66 76.6426 46.1422 76.6426 44.1611C76.6427 42.1404 77.2016 40.6233 78.3193 39.6104C79.1527 38.7522 80.3578 38.3232 81.9346 38.3232ZM103.709 38.4502C105.565 38.4502 106.922 39.0592 107.78 40.2764C108.254 40.9599 108.509 41.6464 108.544 42.335H106.239C106.09 41.8061 105.897 41.4071 105.662 41.1377C105.243 40.6588 104.622 40.419 103.799 40.4189C102.96 40.4189 102.299 40.7588 101.815 41.4375C101.331 42.1111 101.089 43.0663 101.089 44.3037C101.089 45.5411 101.344 46.4691 101.853 47.0879C102.366 47.7015 103.017 48.0087 103.806 48.0088C104.614 48.0088 105.231 47.7448 105.655 47.2158C105.89 46.9314 106.085 46.5044 106.239 45.9355H108.521C108.322 47.1381 107.813 48.1166 106.995 48.8701C106.172 49.6236 105.118 50 103.836 50C102.249 50 101.002 49.4906 100.094 48.4727C99.1856 47.4497 98.7315 46.0479 98.7314 44.2666C98.7314 42.3405 99.2474 40.8554 100.28 39.8125C101.178 38.9043 102.322 38.4502 103.709 38.4502ZM115.169 38.3232C116.746 38.3233 117.951 38.7521 118.784 39.6104C119.897 40.6233 120.453 42.1404 120.453 44.1611C120.453 46.1422 119.897 47.66 118.784 48.7129C117.951 49.5711 116.746 49.9999 115.169 50C113.592 50 112.386 49.5712 111.553 48.7129C110.435 47.66 109.877 46.1421 109.877 44.1611C109.877 42.1405 110.435 40.6233 111.553 39.6104C112.386 38.7521 113.592 38.3232 115.169 38.3232ZM92.8779 38.3379C94.0406 38.3379 95.0313 38.6478 95.8496 39.2666C96.6728 39.8804 97.1046 40.7737 97.1445 41.9463H94.9287C94.8888 41.2826 94.5995 40.8107 94.0605 40.5312C93.7013 40.3466 93.2546 40.2539 92.7207 40.2539C92.1271 40.2539 91.6531 40.3739 91.2988 40.6133C90.9447 40.8527 90.7667 41.1873 90.7666 41.6162C90.7666 42.0104 90.9417 42.3054 91.291 42.5C91.5156 42.6297 91.995 42.7814 92.7285 42.9561L94.6289 43.4131C95.4622 43.6127 96.0915 43.8795 96.5156 44.2139C97.1743 44.7328 97.5039 45.4839 97.5039 46.4668C97.5039 47.4748 97.1172 48.3138 96.3438 48.9824C95.5753 49.6461 94.4872 49.9775 93.0801 49.9775C91.6431 49.9775 90.5128 49.6507 89.6895 48.9971C88.8661 48.3384 88.4541 47.4348 88.4541 46.2871H90.6543C90.7242 46.7911 90.8618 47.1685 91.0664 47.418C91.4407 47.8719 92.0822 48.0986 92.9902 48.0986C93.5341 48.0986 93.9761 48.0387 94.3154 47.9189C94.9587 47.6894 95.2801 47.263 95.2803 46.6396C95.2803 46.2754 95.1211 45.9926 94.8018 45.793C94.4824 45.5984 93.9805 45.427 93.2969 45.2773L92.1289 45.0146C90.9814 44.7552 90.1881 44.4733 89.749 44.1689C89.0056 43.66 88.6338 42.8641 88.6338 41.7812C88.6338 40.7933 88.9934 39.972 89.7119 39.3184C90.4305 38.6649 91.4859 38.3379 92.8779 38.3379ZM69.6064 47.335L71.5977 38.6602H74.9131V49.6934H72.7656V42.2305C72.7656 42.0159 72.7675 41.7163 72.7725 41.332C72.7774 40.9429 72.7803 40.6431 72.7803 40.4336L70.6924 49.6934H68.4541L66.3809 40.4336C66.3809 40.6431 66.3827 40.9429 66.3877 41.332C66.3927 41.7163 66.3955 42.0159 66.3955 42.2305V49.6934H64.2471V38.6602H67.6006L69.6064 47.335ZM125.184 44.9775L125.498 46.7363L125.82 45.0146L127.062 38.6602H129.495L130.805 44.9775L131.142 46.7363L131.479 45.0449L132.953 38.6602H135.296L132.189 49.6934H129.989L128.656 43.2412L128.268 41.1074L127.878 43.2412L126.546 49.6934H124.405L121.276 38.6602H123.724L125.184 44.9775ZM81.9346 40.2764C81.0215 40.2764 80.2929 40.6136 79.749 41.2871C79.2052 41.9607 78.9327 42.9188 78.9326 44.1611C78.9326 45.4037 79.2051 46.3625 79.749 47.0361C80.2929 47.7097 81.0215 48.0459 81.9346 48.0459C82.8476 48.0459 83.5734 47.7096 84.1123 47.0361C84.6462 46.3625 84.9141 45.4037 84.9141 44.1611C84.914 42.9239 84.6442 41.9685 84.1055 41.2949C83.5715 40.6163 82.8478 40.2764 81.9346 40.2764ZM115.169 40.2764C114.256 40.2764 113.526 40.6134 112.982 41.2871C112.439 41.9607 112.167 42.9189 112.167 44.1611C112.167 45.4036 112.439 46.3625 112.982 47.0361C113.526 47.7098 114.256 48.0459 115.169 48.0459C116.082 48.0458 116.808 47.7096 117.347 47.0361C117.881 46.3625 118.147 45.4037 118.147 44.1611C118.147 42.9238 117.878 41.9685 117.339 41.2949C116.805 40.6164 116.082 40.2765 115.169 40.2764ZM25.958 0C27.0754 2.91585 29.5826 4.50966 33.4795 4.78223V5.64062C31.1904 5.7497 30.0459 7.13998 30.0459 9.81055V23.873C30.0459 26.68 31.1904 28.2747 33.4795 28.6562V29.5547C31.6537 29.7455 29.7462 31.2312 27.7568 34.0107C26.5305 33.6292 25.3723 32.7434 24.2822 31.3535C23.3285 30.1273 22.4425 29.5147 21.625 29.5146V28.6562C22.9059 28.084 23.5459 26.4893 23.5459 23.873V6.86719L19.8262 23.1777C19.5809 24.2406 19.458 25.1539 19.458 25.917C19.458 27.5794 19.9899 28.4927 21.0527 28.6562V29.5146C18.8454 29.6782 17.2782 31.0675 16.3516 33.6836C16.1607 32.7844 15.5746 31.8855 14.5938 30.9863C13.6127 30.0597 12.6856 29.5692 11.8135 29.5146V28.6562C12.5765 28.1385 12.959 27.2792 12.959 26.0801C12.9589 25.2899 12.8085 24.3634 12.5088 23.3008L7.88965 6.86719V23.9141C7.88968 25.004 8.16212 26.0258 8.70703 26.9795C9.33384 28.0968 10.1518 28.6562 11.1602 28.6562V29.5146C8.97996 29.9779 7.56226 31.4084 6.9082 33.8066C6.19971 32.4442 5.11006 31.7628 3.63867 31.7627C3.09374 31.7627 2.57541 31.8985 2.08496 32.1709C1.59455 32.4434 1.34877 32.8389 1.34863 33.3564C1.34863 33.6835 1.51281 34.0522 1.83984 34.4609C2.16645 34.8964 2.32983 35.1416 2.33008 35.1963C2.33008 35.4143 2.19342 35.5234 1.9209 35.5234C1.40327 35.5232 0.953702 35.128 0.572266 34.3379C0.245258 33.6839 0.0820312 33.0703 0.0820312 32.498C0.0821353 30.836 0.790295 29.5417 2.20703 28.6152C3.37883 27.825 4.85078 27.3884 6.62207 27.3066V17.9043C6.51306 17.8771 6.3496 17.8643 6.13184 17.8643C5.20525 17.8643 4.59177 18.1228 4.29199 18.6406C4.1013 18.995 4.00586 19.6902 4.00586 20.7256H3.02539V12.7539H4.00586C4.00586 13.8168 4.15628 14.4843 4.45605 14.7568C4.78309 15.0293 5.50495 15.166 6.62207 15.166V6.45898C6.62207 3.57022 5.76378 2.12598 4.04688 2.12598C3.28391 2.126 2.61619 2.34335 2.04395 2.7793C1.38992 3.29707 1.06253 3.89685 1.0625 4.57812C1.0625 5.04137 1.28085 5.5183 1.7168 6.00879C2.18009 6.47208 2.41211 6.71786 2.41211 6.74512C2.41197 6.93567 2.28908 7.03125 2.04395 7.03125C1.47164 7.03125 0.981053 6.78547 0.572266 6.29492C0.190806 5.77716 0 5.1911 0 4.53711C7.37037e-05 3.06559 0.695157 1.92105 2.08496 1.10352C3.22954 0.422248 4.59226 0.0820312 6.17285 0.0820312C7.37191 0.0820652 8.57145 0.463527 9.77051 1.22656C10.2068 1.49938 11.2151 2.28924 12.7949 3.59668C14.1574 4.4142 15.8743 4.80941 17.9453 4.78223V5.64062C16.1197 5.61354 15.207 6.54064 15.207 8.4209C15.207 8.99318 15.3024 9.6608 15.4932 10.4238L18.5186 22.6875L21.502 10.0146C21.6109 9.55165 21.666 9.14318 21.666 8.78906C21.666 6.93602 20.7121 5.88599 18.8047 5.64062V4.78223C20.3307 4.83663 21.7752 4.41487 23.1377 3.51562C24.5275 2.58909 25.4675 1.41701 25.958 0ZM40.75 10.751C41.1043 11.7593 41.6627 12.7543 42.4258 13.7354C43.3523 14.9071 44.2382 15.5197 45.083 15.5742C43.666 16.2282 42.9571 17.4141 42.957 19.1309V24.5684C42.957 25.8218 43.0524 26.6803 43.2432 27.1436C43.5157 27.8248 44.1292 28.3971 45.083 28.8604C44.0202 29.4326 43.1619 30.1278 42.5078 30.9453C42.1263 31.4358 41.5402 32.3622 40.75 33.7246C39.9326 32.3078 39.3465 31.3815 38.9922 30.9453C38.2836 30.1005 37.4244 29.4054 36.416 28.8604C37.3698 28.3971 37.9833 27.8248 38.2559 27.1436C38.4466 26.6531 38.542 25.7945 38.542 24.5684V19.1309C38.5419 17.3869 37.8201 16.201 36.376 15.5742C37.3296 15.574 38.2562 14.9888 39.1553 13.8174C39.8638 12.918 40.3957 11.8956 40.75 10.751ZM58.6709 1.67578C57.499 2.00281 56.5857 3.02528 55.9316 4.74219C55.414 6.07742 55.1553 7.49445 55.1553 8.99316V24.3633C55.1553 25.5622 55.2782 26.4344 55.5234 26.9795C55.8504 27.6607 56.4907 28.233 57.4443 28.6963C56.3544 29.2958 55.4418 30.0048 54.7061 30.8223C54.2155 31.3673 53.5745 32.3348 52.7842 33.7246C52.1029 32.4711 51.4628 31.5035 50.8633 30.8223C50.1547 30.0047 49.2276 29.2958 48.083 28.6963C49.0641 28.2602 49.6913 27.6881 49.9639 26.9795C50.1818 26.4344 50.291 25.5621 50.291 24.3633V19.7441C50.291 17.4278 49.5408 15.8468 48.042 15.002C49.0503 14.4024 49.7051 13.7211 50.0049 12.958C50.2228 12.3857 50.332 11.4454 50.332 10.1377C50.332 7.63074 49.5413 6.1185 47.9609 5.60059C48.1517 5.6278 48.4105 5.6416 48.7373 5.6416C50.1272 5.6416 51.8034 4.94652 53.7656 3.55664C55.8368 2.08501 57.4718 1.2395 58.6709 1.02148V1.67578ZM70.9746 1.67578C69.8028 2.00281 68.8894 3.02528 68.2354 4.74219C67.7177 6.07745 67.459 7.49442 67.459 8.99316V24.3633C67.459 25.562 67.581 26.4344 67.8262 26.9795C68.1532 27.6608 68.7943 28.233 69.748 28.6963C68.6579 29.2958 67.7446 30.0047 67.0088 30.8223C66.5183 31.3673 65.8781 32.3349 65.0879 33.7246C64.4066 32.4711 63.7655 31.5036 63.166 30.8223C62.4575 30.0048 61.5312 29.2958 60.3867 28.6963C61.3677 28.2603 61.9951 27.688 62.2676 26.9795C62.4855 26.4344 62.5938 25.5621 62.5938 24.3633V19.7441C62.5937 17.4278 61.8446 15.8468 60.3457 15.002C61.354 14.4024 62.0078 13.7211 62.3076 12.958C62.5256 12.3857 62.6348 11.4456 62.6348 10.1377C62.6347 7.63053 61.8443 6.11838 60.2637 5.60059C60.4544 5.62784 60.714 5.6416 61.041 5.6416C62.4308 5.64152 64.1073 4.94644 66.0693 3.55664C68.1404 2.08508 69.7755 1.2395 70.9746 1.02148V1.67578ZM76.9414 10.751C77.2957 11.7593 77.8551 12.7543 78.6182 13.7354C79.5447 14.907 80.4306 15.5197 81.2754 15.5742C79.8583 16.2282 79.1495 17.4141 79.1494 19.1309V24.5684C79.1494 25.8218 79.2448 26.6803 79.4355 27.1436C79.7081 27.8248 80.3217 28.3971 81.2754 28.8604C80.2125 29.4327 79.3533 30.1277 78.6992 30.9453C78.3177 31.4359 77.7316 32.3623 76.9414 33.7246C76.1239 32.3077 75.5378 31.3813 75.1836 30.9453C74.475 30.1005 73.6167 29.4054 72.6084 28.8604C73.5622 28.3971 74.1757 27.8248 74.4482 27.1436C74.639 26.6531 74.7344 25.7945 74.7344 24.5684V19.1309C74.7343 17.3868 74.0117 16.201 72.5674 15.5742C73.5212 15.5742 74.4484 14.9891 75.3477 13.8174C76.0562 12.9181 76.5871 11.8955 76.9414 10.751ZM93.6367 10.751C94.209 11.7593 95.381 12.7946 97.1523 13.8574C98.9235 14.8929 100.408 15.4386 101.607 15.4932C100.136 15.8476 99.4004 17.292 99.4004 19.8262V24.4043C99.4004 26.5844 100.15 28.0562 101.648 28.8193C97.0975 28.9012 93.9227 30.5363 92.124 33.7246C91.4972 32.6346 90.3115 31.5579 88.5674 30.4951C86.8506 29.4324 85.3786 28.8738 84.1523 28.8193C84.8064 28.7921 85.352 28.2336 85.7881 27.1436C86.1696 26.217 86.3604 25.3852 86.3604 24.6494V20.0713C86.3603 17.8366 85.6377 16.3107 84.1934 15.4932C86.0193 15.4932 87.8047 15.0842 89.5488 14.2666C91.4292 13.3945 92.7919 12.2226 93.6367 10.751ZM117.605 10.751C118.396 12.2769 118.954 13.2307 119.281 13.6123C119.826 14.2391 120.726 14.8801 121.979 15.5342C120.535 16.2427 119.813 17.4277 119.812 19.0898V24.5684C119.813 25.6855 119.922 26.5303 120.14 27.1025C120.412 27.8111 121.026 28.3971 121.979 28.8604C120.862 29.4599 119.99 30.1413 119.363 30.9043C119.064 31.2586 118.477 32.1987 117.605 33.7246C116.788 32.3078 116.202 31.3815 115.848 30.9453C115.139 30.1006 114.281 29.4054 113.272 28.8604C114.199 28.4244 114.812 27.8382 115.111 27.1025C115.302 26.612 115.397 25.7673 115.397 24.5684V19.0898C115.397 18.2998 115.22 17.6052 114.866 17.0059C114.457 16.2973 113.885 15.9424 113.149 15.9424C112.414 15.9424 111.841 16.2973 111.433 17.0059C111.078 17.6053 110.901 18.2998 110.901 19.0898V24.5684C110.901 25.74 111.011 26.5848 111.229 27.1025C111.528 27.8382 112.141 28.4244 113.067 28.8604C112.005 29.4326 111.132 30.1278 110.451 30.9453C110.097 31.3542 109.511 32.2805 108.693 33.7246C108.312 33.0433 107.726 32.1032 106.936 30.9043C106.254 30.114 105.396 29.4326 104.36 28.8604C105.287 28.4243 105.9 27.8384 106.2 27.1025C106.418 26.5848 106.527 25.74 106.527 24.5684V19.0898C106.527 17.4549 105.805 16.2699 104.36 15.5342C105.559 14.9074 106.445 14.2526 107.018 13.5713C107.481 13.0535 108.039 12.1134 108.693 10.751C110.165 13.7215 111.651 15.207 113.149 15.207C114.648 15.207 116.134 13.7215 117.605 10.751ZM138.252 10.751C139.042 12.2771 139.602 13.2308 139.929 13.6123C140.474 14.2391 141.372 14.8802 142.626 15.5342C141.182 16.2427 140.46 17.4278 140.46 19.0898V24.5684C140.46 25.6855 140.569 26.5303 140.787 27.1025C141.06 27.811 141.672 28.3971 142.626 28.8604C141.509 29.4599 140.637 30.1413 140.01 30.9043C139.71 31.2587 139.124 32.1988 138.252 33.7246C137.434 32.3076 136.848 31.3813 136.494 30.9453C135.786 30.1005 134.927 29.4054 133.919 28.8604C134.846 28.4243 135.459 27.8384 135.759 27.1025C135.95 26.612 136.045 25.7673 136.045 24.5684V19.0898C136.045 18.2999 135.868 17.6052 135.514 17.0059C135.105 16.2974 134.532 15.9425 133.797 15.9424C133.061 15.9424 132.488 16.2973 132.079 17.0059C131.725 17.6052 131.548 18.2999 131.548 19.0898V24.5684C131.548 25.74 131.657 26.5848 131.875 27.1025C132.175 27.8384 132.788 28.4243 133.715 28.8604C132.652 29.4327 131.78 30.1277 131.099 30.9453C130.744 31.3541 130.158 32.2804 129.341 33.7246C128.959 33.0433 128.373 32.1033 127.583 30.9043C126.902 30.114 126.043 29.4326 125.008 28.8604C125.934 28.4244 126.547 27.8382 126.847 27.1025C127.065 26.5848 127.174 25.74 127.174 24.5684V19.0898C127.174 17.455 126.452 16.27 125.008 15.5342C126.207 14.9074 127.093 14.2526 127.665 13.5713C128.128 13.0534 128.687 12.1133 129.341 10.751C130.812 13.7215 132.298 15.207 133.797 15.207C135.296 15.2068 136.78 13.7212 138.252 10.751ZM158.776 10.71C159.376 12.0453 159.922 13.0127 160.412 13.6123C161.012 14.2935 161.911 14.9475 163.109 15.5742C162.455 15.8739 161.924 16.3648 161.516 17.0459C161.107 17.7272 160.902 18.4361 160.902 19.1719V24.6904C160.902 25.8621 161.012 26.7206 161.229 27.2656C161.502 27.9741 162.128 28.5602 163.109 29.0234C161.965 29.6502 161.093 30.305 160.493 30.9863C160.003 31.5314 159.43 32.4441 158.776 33.7246C157.25 30.9725 155.752 29.596 154.28 29.5957C152.781 29.5957 151.268 30.9722 149.742 33.7246C148.952 32.2537 148.421 31.3409 148.148 30.9863C147.549 30.2505 146.717 29.5957 145.654 29.0234C147.071 28.5874 147.78 27.3071 147.78 25.1816C147.78 23.6828 147.371 22.5512 146.554 21.7881C147.426 22.1969 148.202 22.4014 148.884 22.4014C149.701 22.4014 150.615 22.0337 151.623 21.2979C152.631 20.5621 153.394 20.1943 153.912 20.1943C154.621 20.1944 155.397 20.5759 156.242 21.3389V18.4775C156.242 17.878 156.038 17.3323 155.629 16.8418C155.247 16.3241 154.784 16.0655 154.239 16.0654C152.768 16.0654 151.268 17.4418 149.742 20.1943C148.979 18.7775 148.448 17.8778 148.148 17.4961C147.603 16.7875 146.772 16.1465 145.654 15.5742C146.853 15.0019 147.712 14.3481 148.229 13.6123C148.557 13.149 149.061 12.1816 149.742 10.71C151.159 13.7622 152.672 15.2881 154.28 15.2881C155.861 15.2878 157.359 13.7619 158.776 10.71ZM177.059 1.55371C174.797 2.26227 173.665 4.72812 173.665 8.95215V13.2441C174.946 13.2441 175.723 13.0672 175.995 12.7129C176.186 12.4676 176.281 11.6771 176.281 10.3418H177.181V19.0088H176.281V18.2725C176.308 18.0546 176.322 17.8095 176.322 17.5371C176.322 16.556 176.132 15.9012 175.75 15.5742C175.396 15.2474 174.7 15.084 173.665 15.084V24.3633C173.665 26.8977 174.442 28.5337 175.995 29.2695C174.715 29.9778 173.802 30.5769 173.257 31.0674C172.63 31.6669 171.989 32.5528 171.335 33.7246C170.599 32.4439 169.959 31.5441 169.414 31.0264C169.032 30.6448 168.105 30.0597 166.634 29.2695C167.56 28.8336 168.188 28.152 168.515 27.2256C168.733 26.5988 168.842 25.6441 168.842 24.3633V15.084H166.062V13.2441H168.842V8.99316C168.842 8.25737 168.46 7.56224 167.697 6.9082C167.616 6.82645 167.193 6.48624 166.43 5.88672L166.471 5.8457C167.125 5.76396 168.051 5.55938 169.25 5.23242C169.877 5.0144 171.118 4.22395 172.971 2.86133C174.388 1.82583 175.764 1.21224 177.1 1.02148L177.059 1.55371ZM193.403 10.71C194.003 12.0453 194.549 13.0127 195.039 13.6123C195.639 14.2936 196.538 14.9474 197.737 15.5742C197.083 15.874 196.551 16.3647 196.143 17.0459C195.734 17.7272 195.529 18.4361 195.529 19.1719V24.6904C195.529 25.862 195.639 26.7206 195.856 27.2656C196.129 27.9742 196.756 28.5601 197.737 29.0234C196.593 29.6502 195.721 30.305 195.121 30.9863C194.631 31.5314 194.057 32.4437 193.403 33.7246C191.877 30.9724 190.379 29.5958 188.907 29.5957C187.408 29.5957 185.895 30.9721 184.369 33.7246C183.579 32.2536 183.048 31.3408 182.775 30.9863C182.176 30.2505 181.344 29.5957 180.281 29.0234C181.698 28.5874 182.407 27.3071 182.407 25.1816C182.407 23.6828 181.998 22.5512 181.181 21.7881C182.053 22.1968 182.83 22.4013 183.511 22.4014C184.328 22.4014 185.242 22.0336 186.25 21.2979C187.258 20.5621 188.021 20.1944 188.539 20.1943C189.248 20.1943 190.024 20.5758 190.869 21.3389V18.4775C190.869 17.878 190.665 17.3323 190.256 16.8418C189.874 16.3241 189.411 16.0654 188.866 16.0654C187.395 16.0654 185.895 17.4418 184.369 20.1943C183.606 18.7774 183.075 17.8777 182.775 17.4961C182.23 16.7875 181.399 16.1465 180.281 15.5742C181.48 15.0019 182.34 14.3481 182.857 13.6123C183.184 13.1489 183.688 12.1813 184.369 10.71C185.786 13.7622 187.299 15.2881 188.907 15.2881C190.488 15.288 191.986 13.7621 193.403 10.71ZM90.8564 24.6094C90.8567 26.4078 92.2057 27.9478 94.9033 29.2285V20.0303C94.9033 18.8585 94.4815 17.7956 93.6367 16.8418C93.2007 16.3513 92.2736 15.6296 90.8564 14.6758V24.6094ZM154.157 21.2568C152.931 21.2568 152.317 22.4967 152.317 24.9766C152.317 26.1484 152.386 26.9664 152.522 27.4297C152.795 28.3288 153.367 28.7783 154.239 28.7783C155.574 28.7782 156.242 27.7016 156.242 25.5488V22.9736C155.806 21.8291 155.111 21.2569 154.157 21.2568ZM188.784 21.2568C187.558 21.257 186.945 22.4969 186.945 24.9766C186.945 26.1484 187.013 26.9664 187.149 27.4297C187.422 28.3289 187.994 28.7783 188.866 28.7783C190.202 28.7783 190.869 27.7018 190.869 25.5488V22.9736C190.433 21.8291 189.738 21.2568 188.784 21.2568ZM40.75 1.02148C41.7038 3.44696 43.1481 5.06914 45.083 5.88672C43.1481 6.75878 41.7038 8.28473 40.75 10.4648C39.8507 8.17563 38.4054 6.64979 36.416 5.88672C38.5417 4.87838 39.9869 3.25619 40.75 1.02148ZM76.9414 1.02148C77.8952 3.44696 79.3405 5.06914 81.2754 5.88672C79.3405 6.7588 77.8952 8.28464 76.9414 10.4648C76.0421 8.1757 74.5978 6.64977 72.6084 5.88672C74.7341 4.87838 76.1783 3.25619 76.9414 1.02148Z" fill="black"/>
</svg>
