<svg width="132" height="34" viewBox="0 0 132 34" fill="none" xmlns="http://www.w3.org/2000/svg">
<path d="M54.5869 25.5322C55.6373 25.5323 56.44 25.8179 56.9951 26.3896C57.7365 27.0645 58.1074 28.0754 58.1074 29.4219C58.1074 30.7415 57.7364 31.7517 56.9951 32.4531C56.44 33.0249 55.6374 33.3115 54.5869 33.3115C53.5364 33.3115 52.7329 33.0249 52.1777 32.4531C51.4334 31.7517 51.0616 30.7413 51.0615 29.4219C51.0615 28.0756 51.4332 27.0645 52.1777 26.3896C52.7329 25.8178 53.5364 25.5322 54.5869 25.5322ZM69.0938 25.6162C70.33 25.6163 71.2339 26.0222 71.8057 26.833C72.1215 27.2885 72.2912 27.7463 72.3145 28.2051H70.7783C70.6786 27.8527 70.5508 27.5868 70.3945 27.4072C70.1153 27.0881 69.7018 26.9278 69.1533 26.9277C68.5948 26.9277 68.1545 27.1544 67.832 27.6064C67.5096 28.0553 67.3477 28.6921 67.3477 29.5166C67.3477 30.3408 67.5175 30.9589 67.8564 31.3711C68.1989 31.78 68.6329 31.9844 69.1582 31.9844C69.6967 31.9844 70.1071 31.8084 70.3896 31.4561C70.5459 31.2666 70.6753 30.9824 70.7783 30.6035H72.2998C72.1668 31.4047 71.8274 32.0566 71.2822 32.5586C70.7337 33.0604 70.032 33.3115 69.1777 33.3115C68.1207 33.3115 67.2896 32.9721 66.6846 32.2939C66.0795 31.6124 65.7773 30.6781 65.7773 29.4912C65.7774 28.208 66.1214 27.2192 66.8096 26.5244C67.408 25.9194 68.1695 25.6162 69.0938 25.6162ZM76.7275 25.5322C77.7781 25.5322 78.5815 25.8178 79.1367 26.3896C79.878 27.0645 80.249 28.0755 80.249 29.4219C80.249 30.7414 79.8779 31.7517 79.1367 32.4531C78.5815 33.0249 77.7781 33.3115 76.7275 33.3115C75.6772 33.3114 74.8745 33.0249 74.3193 32.4531C73.5748 31.7517 73.2022 30.7414 73.2021 29.4219C73.2021 28.0755 73.5747 27.0645 74.3193 26.3896C74.8745 25.8179 75.6772 25.5323 76.7275 25.5322ZM61.877 25.542C62.6516 25.542 63.3122 25.7479 63.8574 26.1602C64.4058 26.569 64.6931 27.1642 64.7197 27.9453H63.2441C63.2175 27.5032 63.0241 27.1891 62.665 27.0029C62.4257 26.88 62.1281 26.8184 61.7725 26.8184C61.377 26.8184 61.0612 26.8981 60.8252 27.0576C60.5893 27.2171 60.4708 27.4399 60.4707 27.7256C60.4707 27.9882 60.5876 28.1848 60.8203 28.3145C60.9699 28.4009 61.289 28.5019 61.7773 28.6182L63.0439 28.9229C63.5989 29.0558 64.0182 29.2334 64.3008 29.4561C64.7395 29.8017 64.9589 30.3023 64.959 30.957C64.959 31.6285 64.7017 32.1874 64.1865 32.6328C63.6745 33.075 62.9492 33.2959 62.0117 33.2959C61.0544 33.2958 60.3014 33.078 59.7529 32.6426C59.2046 32.2038 58.9307 31.6023 58.9307 30.8379H60.3965C60.443 31.1736 60.5346 31.4246 60.6709 31.5908C60.9202 31.8932 61.3472 32.0449 61.9521 32.0449C62.3145 32.0449 62.6089 32.0046 62.835 31.9248C63.2637 31.7719 63.4785 31.4877 63.4785 31.0723C63.4785 30.8297 63.3718 30.6418 63.1592 30.5088C62.9464 30.3791 62.6117 30.2638 62.1562 30.1641L61.3789 29.9902C60.6144 29.8174 60.0856 29.6295 59.793 29.4268C59.2977 29.0877 59.0499 28.5572 59.0498 27.8359C59.0498 27.1778 59.2891 26.6308 59.7676 26.1953C60.2462 25.7599 60.9496 25.5421 61.877 25.542ZM46.374 31.5361L47.7002 25.7559H49.9092V33.1064H48.4775V28.1348C48.4775 27.9918 48.4801 27.792 48.4834 27.5361C48.4867 27.2772 48.4883 27.078 48.4883 26.9385L47.0967 33.1064H45.6055L44.2246 26.9385C44.2246 27.078 44.2262 27.2772 44.2295 27.5361C44.2328 27.792 44.2344 27.9918 44.2344 28.1348V33.1064H42.8027V25.7559H45.0371L46.374 31.5361ZM83.4004 29.9648L83.6094 31.1367L83.8242 29.9902L84.6523 25.7559H86.2725L87.1455 29.9648L87.3701 31.1367L87.5938 30.0098L88.5762 25.7559H90.1377L88.0684 33.1064H86.6016L85.7139 28.8086L85.4551 27.3867L85.1953 28.8086L84.3076 33.1064H82.8818L80.7969 25.7559H82.4277L83.4004 29.9648ZM54.5869 26.833C53.9785 26.833 53.4932 27.058 53.1309 27.5068C52.7685 27.9556 52.5869 28.5941 52.5869 29.4219C52.587 30.2495 52.7685 30.8882 53.1309 31.3369C53.4932 31.7854 53.9787 32.0098 54.5869 32.0098C55.1951 32.0097 55.6791 31.7855 56.0381 31.3369C56.3938 30.8882 56.5712 30.2495 56.5713 29.4219C56.5713 28.5975 56.3921 27.9605 56.0332 27.5117C55.6775 27.0596 55.1952 26.833 54.5869 26.833ZM76.7275 26.833C76.1194 26.8331 75.6338 27.0581 75.2715 27.5068C74.9093 27.9556 74.7285 28.5943 74.7285 29.4219C74.7286 30.2495 74.9092 30.8882 75.2715 31.3369C75.6338 31.7855 76.1194 32.0097 76.7275 32.0098C77.3357 32.0098 77.8197 31.7854 78.1787 31.3369C78.5344 30.8882 78.7128 30.2495 78.7129 29.4219C78.7129 28.5974 78.5329 27.9605 78.1738 27.5117C77.8181 27.0596 77.3359 26.833 76.7275 26.833ZM17.2939 0C18.0384 1.94252 19.7086 3.00491 22.3047 3.18652V3.75781C20.7797 3.83053 20.0176 4.75692 20.0176 6.53613V15.9043C20.0176 17.7743 20.7798 18.8365 22.3047 19.0908V19.6904C21.0883 19.8177 19.8175 20.8074 18.4922 22.6592C17.6752 22.405 16.903 21.8146 16.1768 20.8887C15.5414 20.0719 14.9518 19.6632 14.4072 19.6631V19.0908C15.2604 18.7094 15.6875 17.6471 15.6875 15.9043V4.5752L13.209 15.4414C13.0456 16.1495 12.9639 16.7582 12.9639 17.2666C12.9639 18.3738 13.3176 18.9817 14.0254 19.0908V19.6631C12.5549 19.7721 11.5108 20.6985 10.8936 22.4414C10.7665 21.8423 10.3763 21.2427 9.72266 20.6436C9.06916 20.0264 8.45199 19.6995 7.87109 19.6631V19.0908C8.37922 18.7458 8.63379 18.1737 8.63379 17.375C8.63375 16.8486 8.53364 16.2313 8.33398 15.5234L5.25586 4.5752V15.9316C5.25586 16.6579 5.43766 17.3391 5.80078 17.9746C6.21829 18.7188 6.76299 19.0907 7.43457 19.0908V19.6631C5.98235 19.9718 5.03827 20.925 4.60254 22.5225C4.13047 21.6148 3.4042 21.1611 2.42383 21.1611C2.06072 21.1611 1.71547 21.252 1.38867 21.4336C1.06222 21.6151 0.898569 21.878 0.898438 22.2227C0.898438 22.4405 1.00783 22.6858 1.22559 22.958C1.44273 23.2475 1.552 23.4112 1.55273 23.4482C1.55273 23.5934 1.46166 23.6659 1.28027 23.666C0.935314 23.666 0.635043 23.4035 0.380859 22.877C0.163026 22.4413 0.0547289 22.0326 0.0546875 21.6514C0.0546875 20.5438 0.526577 19.6808 1.4707 19.0635C2.25139 18.537 3.23206 18.2468 4.41211 18.1924V11.9287C4.33948 11.9106 4.23021 11.9014 4.08496 11.9014C3.46776 11.9014 3.05907 12.074 2.85938 12.4189C2.73239 12.6551 2.66895 13.118 2.66895 13.8076H2.01562V8.49707H2.66895C2.66896 9.205 2.76909 9.64946 2.96875 9.83105C3.18663 10.0126 3.6677 10.1035 4.41211 10.1035V4.30273C4.41209 2.37828 3.84006 1.41606 2.69629 1.41602C2.18791 1.41602 1.74261 1.56106 1.36133 1.85156C0.92576 2.19644 0.708088 2.59605 0.708008 3.0498C0.708008 3.35836 0.853249 3.67623 1.14355 4.00293C1.45033 4.3097 1.60457 4.47336 1.60645 4.49316C1.60645 4.62026 1.52473 4.68457 1.36133 4.68457C0.980234 4.68446 0.653102 4.521 0.380859 4.19434C0.126672 3.84937 0 3.45821 0 3.02246C0.000112965 2.0423 0.46302 1.27996 1.38867 0.735352C2.15121 0.281458 3.05928 0.0547004 4.1123 0.0546875C4.91106 0.0546875 5.71003 0.308183 6.50879 0.816406C6.79929 0.997969 7.47135 1.52498 8.52441 2.39648C9.43222 2.94115 10.5762 3.20468 11.9561 3.18652V3.75781C10.7396 3.73966 10.1309 4.35757 10.1309 5.61035C10.1309 5.99154 10.1952 6.43613 10.3223 6.94434L12.3369 15.1152L14.3252 6.67188C14.3977 6.36347 14.4345 6.09136 14.4346 5.85547C14.4346 4.62084 13.7983 3.92122 12.5273 3.75781V3.18652C13.5441 3.22284 14.5072 2.94095 15.415 2.3418C16.3408 1.72455 16.9672 0.943948 17.2939 0ZM27.1484 7.16211C27.3844 7.83378 27.7564 8.49687 28.2646 9.15039C28.8819 9.93109 29.4723 10.3396 30.0352 10.376C29.091 10.8117 28.6191 11.6022 28.6191 12.7461V16.3682C28.6192 17.2032 28.6825 17.7754 28.8096 18.084C28.9912 18.5377 29.3998 18.919 30.0352 19.2275C29.3271 19.6088 28.7551 20.0716 28.3193 20.6162C28.0651 20.943 27.675 21.5609 27.1484 22.4688C26.6038 21.5247 26.2136 20.9067 25.9775 20.6162C25.5055 20.0534 24.9334 19.5906 24.2617 19.2275C24.897 18.919 25.3057 18.5377 25.4873 18.084C25.6144 17.7572 25.6777 17.185 25.6777 16.3682V12.7461C25.6777 11.5841 25.1967 10.7936 24.2344 10.376C24.8698 10.3759 25.4868 9.98569 26.0859 9.20508C26.558 8.60592 26.9124 7.92467 27.1484 7.16211ZM39.0879 1.11621C38.3072 1.33408 37.6994 2.01539 37.2637 3.15918C36.9187 4.04876 36.7461 4.99272 36.7461 5.99121V16.2314C36.7461 17.0303 36.8278 17.6115 36.9912 17.9746C37.2091 18.4284 37.6353 18.8096 38.2705 19.1182C37.5445 19.5175 36.9364 19.9897 36.4463 20.5342C36.1195 20.8973 35.6925 21.5428 35.166 22.4688C34.7121 21.6336 34.2852 20.9881 33.8857 20.5342C33.4137 19.9897 32.7965 19.5175 32.0342 19.1182C32.6877 18.8277 33.1056 18.4466 33.2871 17.9746C33.4323 17.6115 33.5049 17.0303 33.5049 16.2314V13.1543C33.5049 11.611 33.0054 10.558 32.0068 9.99512C32.6786 9.59568 33.1147 9.14119 33.3145 8.63281C33.4596 8.25149 33.5322 7.62507 33.5322 6.75391C33.5322 5.08362 33.0052 4.0764 31.9521 3.73145C32.0792 3.7496 32.252 3.75781 32.4697 3.75781C33.3956 3.75781 34.5122 3.29501 35.8193 2.36914C37.1992 1.3887 38.289 0.825913 39.0879 0.680664V1.11621ZM47.2852 1.11621C46.5044 1.33409 45.8957 2.01534 45.46 3.15918C45.115 4.04873 44.9424 4.99275 44.9424 5.99121V16.2314C44.9424 17.0303 45.0241 17.6115 45.1875 17.9746C45.4054 18.4285 45.8324 18.8095 46.4678 19.1182C45.7415 19.5176 45.1328 19.9895 44.6426 20.5342C44.3158 20.8973 43.8898 21.5428 43.3633 22.4688C42.9094 21.6336 42.4824 20.9881 42.083 20.5342C41.611 19.9896 40.9938 19.5175 40.2314 19.1182C40.8848 18.8277 41.3018 18.4465 41.4834 17.9746C41.6286 17.6115 41.7021 17.0303 41.7021 16.2314V13.1543C41.7021 11.6112 41.2025 10.558 40.2041 9.99512C40.8758 9.5957 41.311 9.14116 41.5107 8.63281C41.6559 8.25151 41.7285 7.62522 41.7285 6.75391C41.7285 5.08371 41.2023 4.07646 40.1494 3.73145C40.2765 3.74959 40.4492 3.75781 40.667 3.75781C41.5929 3.75775 42.7094 3.29505 44.0166 2.36914C45.3965 1.38873 46.4863 0.825912 47.2852 0.680664V1.11621ZM51.2607 7.16211C51.4967 7.83381 51.8687 8.49684 52.377 9.15039C52.9943 9.93111 53.5846 10.3397 54.1475 10.376C53.2033 10.8117 52.7314 11.6022 52.7314 12.7461V16.3682C52.7315 17.2032 52.7948 17.7754 52.9219 18.084C53.1035 18.5377 53.5122 18.919 54.1475 19.2275C53.4394 19.6088 52.8674 20.0716 52.4316 20.6162C52.1775 20.943 51.7873 21.5609 51.2607 22.4688C50.7161 21.5248 50.3259 20.9068 50.0898 20.6162C49.6179 20.0535 49.0456 19.5906 48.374 19.2275C49.0092 18.919 49.418 18.5377 49.5996 18.084C49.7267 17.7572 49.79 17.185 49.79 16.3682V12.7461C49.79 11.5842 49.3088 10.7936 48.3467 10.376C48.982 10.3758 49.5992 9.98567 50.1982 9.20508C50.6703 8.60592 51.0247 7.92467 51.2607 7.16211ZM62.3828 7.16211C62.7641 7.83384 63.5446 8.52439 64.7246 9.23242C65.9047 9.92229 66.8945 10.2849 67.6934 10.3213C66.713 10.5574 66.2227 11.5205 66.2227 13.209V16.2588C66.2227 17.7113 66.7222 18.6918 67.7207 19.2002C64.6887 19.2547 62.5733 20.3445 61.375 22.4688C60.9574 21.7425 60.1679 21.0245 59.0059 20.3164C57.8621 19.6084 56.8815 19.2365 56.0645 19.2002C56.5002 19.182 56.8638 18.8101 57.1543 18.084C57.4085 17.4667 57.5352 16.9121 57.5352 16.4219V13.3721C57.5352 11.8833 57.0541 10.866 56.0918 10.3213C57.3081 10.3213 58.4973 10.0495 59.6592 9.50488C60.912 8.92388 61.82 8.14255 62.3828 7.16211ZM78.3516 7.16211C78.8781 8.17886 79.2499 8.81515 79.4678 9.06934C79.8309 9.48689 80.4305 9.91292 81.2656 10.3486C80.3033 10.8207 79.8223 11.6112 79.8223 12.7188V16.3682C79.8223 17.1124 79.8948 17.6754 80.04 18.0566C80.2217 18.5286 80.6303 18.919 81.2656 19.2275C80.5213 19.6269 79.94 20.0806 79.5225 20.5889C79.3227 20.8249 78.9326 21.452 78.3516 22.4688C77.8069 21.5247 77.4167 20.9068 77.1807 20.6162C76.7087 20.0535 76.1365 19.5906 75.4648 19.2275C76.082 18.9371 76.4907 18.5467 76.6904 18.0566C76.8175 17.7299 76.8808 17.1668 76.8809 16.3682V12.7188C76.8809 12.1922 76.7624 11.7285 76.5264 11.3291C76.254 10.8573 75.8729 10.6211 75.3828 10.6211C74.8927 10.6211 74.5116 10.8573 74.2393 11.3291C74.0032 11.7285 73.8848 12.1922 73.8848 12.7188V16.3682C73.8848 17.1487 73.9573 17.7117 74.1025 18.0566C74.3023 18.5467 74.711 18.9371 75.3281 19.2275C74.6201 19.6088 74.0388 20.0716 73.585 20.6162C73.3489 20.8886 72.9587 21.5066 72.4141 22.4688C72.1599 22.0148 71.7697 21.3877 71.2432 20.5889C70.7893 20.0624 70.2172 19.6088 69.5273 19.2275C70.1445 18.9371 70.5532 18.5467 70.7529 18.0566C70.8982 17.7117 70.9707 17.1487 70.9707 16.3682V12.7188C70.9707 11.6294 70.4896 10.8389 69.5273 10.3486C70.3261 9.93107 70.9166 9.49586 71.2979 9.04199C71.6065 8.69702 71.9783 8.06992 72.4141 7.16211C73.3945 9.14114 74.3842 10.1309 75.3828 10.1309C76.3814 10.1309 77.3711 9.14114 78.3516 7.16211ZM92.1074 7.16211C92.634 8.17886 93.0058 8.81515 93.2236 9.06934C93.5868 9.48685 94.1865 9.91297 95.0215 10.3486C94.0592 10.8207 93.5771 11.6112 93.5771 12.7188V16.3682C93.5772 17.1124 93.6507 17.6754 93.7959 18.0566C93.9775 18.5285 94.3862 18.919 95.0215 19.2275C94.2772 19.6269 93.6959 20.0806 93.2783 20.5889C93.0786 20.8249 92.6884 21.452 92.1074 22.4688C91.5627 21.5246 91.1716 20.9067 90.9355 20.6162C90.4635 20.0535 89.8914 19.5906 89.2197 19.2275C89.8369 18.9371 90.2455 18.5467 90.4453 18.0566C90.5724 17.7299 90.6367 17.1668 90.6367 16.3682V12.7188C90.6367 12.1922 90.5183 11.7285 90.2822 11.3291C90.0099 10.8573 89.6287 10.6212 89.1387 10.6211C88.6485 10.6211 88.2665 10.8571 87.9941 11.3291C87.7581 11.7285 87.6406 12.1922 87.6406 12.7188V16.3682C87.6406 17.1487 87.7132 17.7117 87.8584 18.0566C88.0582 18.5467 88.4668 18.9371 89.084 19.2275C88.3759 19.6088 87.7947 20.0715 87.3408 20.6162C87.1048 20.8886 86.7146 21.5065 86.1699 22.4688C85.9157 22.0148 85.5256 21.3877 84.999 20.5889C84.5452 20.0624 83.973 19.6088 83.2832 19.2275C83.9004 18.9371 84.3091 18.5467 84.5088 18.0566C84.654 17.7117 84.7265 17.1487 84.7266 16.3682V12.7188C84.7266 11.6294 84.2455 10.8389 83.2832 10.3486C84.0819 9.93109 84.6725 9.49584 85.0537 9.04199C85.3624 8.697 85.7342 8.06984 86.1699 7.16211C87.1504 9.14114 88.1401 10.1309 89.1387 10.1309C90.1372 10.1307 91.1271 9.14096 92.1074 7.16211ZM105.78 7.13574C106.18 8.0253 106.543 8.66993 106.87 9.06934C107.27 9.52316 107.869 9.95845 108.668 10.376C108.232 10.5757 107.878 10.9026 107.605 11.3564C107.333 11.8102 107.197 12.2824 107.197 12.7725V16.4492C107.197 17.2299 107.27 17.8019 107.415 18.165C107.597 18.6371 108.014 19.0273 108.668 19.3359C107.905 19.7535 107.324 20.1897 106.925 20.6436C106.598 21.0067 106.216 21.6154 105.78 22.4688C104.764 20.6351 103.766 19.7179 102.785 19.7178C101.787 19.7178 100.778 20.635 99.7617 22.4688C99.2353 21.4886 98.8818 20.8797 98.7002 20.6436C98.3008 20.1533 97.7462 19.7172 97.0381 19.3359C97.9822 19.0454 98.4551 18.1925 98.4551 16.7764C98.4551 15.7778 98.1824 15.024 97.6377 14.5156C98.2187 14.788 98.7365 14.9248 99.1904 14.9248C99.7349 14.9247 100.343 14.6794 101.015 14.1895C101.686 13.6992 102.195 13.4541 102.54 13.4541C103.012 13.4542 103.529 13.7078 104.092 14.2158V12.3096C104.092 11.9103 103.956 11.5474 103.684 11.2207C103.429 10.8758 103.121 10.7032 102.758 10.7031C101.777 10.7031 100.778 11.6203 99.7617 13.4541C99.2535 12.5103 98.8999 11.9106 98.7002 11.6562C98.3371 11.1842 97.7825 10.7573 97.0381 10.376C97.8368 9.99479 98.4089 9.5594 98.7539 9.06934C98.9717 8.76072 99.3079 8.11596 99.7617 7.13574C100.706 9.16906 101.714 10.1855 102.785 10.1855C103.838 10.1854 104.836 9.16875 105.78 7.13574ZM117.96 1.03516C116.453 1.50742 115.7 3.15021 115.7 5.96387V8.82422C116.553 8.8242 117.07 8.70565 117.252 8.46973C117.379 8.30634 117.443 7.78004 117.443 6.89062H118.042V12.6641H117.443V12.1738C117.462 12.0286 117.471 11.8651 117.471 11.6836C117.471 11.03 117.343 10.5939 117.089 10.376C116.853 10.1582 116.39 10.0498 115.7 10.0498V16.2314C115.7 17.9199 116.217 19.0097 117.252 19.5C116.399 19.972 115.791 20.3715 115.428 20.6982C115.01 21.0977 114.583 21.6881 114.147 22.4688C113.657 21.6154 113.23 21.0159 112.867 20.6709C112.613 20.4167 111.996 20.0264 111.016 19.5C111.633 19.2095 112.051 18.755 112.269 18.1377C112.414 17.7201 112.486 17.0846 112.486 16.2314V10.0498H110.635V8.82422H112.486V5.99121C112.486 5.50109 112.232 5.03821 111.724 4.60254C111.669 4.54797 111.388 4.32099 110.88 3.92188L110.907 3.89453C111.343 3.84002 111.96 3.70413 112.759 3.48633C113.176 3.34108 114.003 2.81406 115.237 1.90625C116.181 1.2165 117.098 0.807804 117.987 0.680664L117.96 1.03516ZM128.851 7.13574C129.25 8.02515 129.613 8.66997 129.939 9.06934C130.339 9.52319 130.939 9.95843 131.737 10.376C131.302 10.5757 130.947 10.9026 130.675 11.3564C130.403 11.8102 130.267 12.2824 130.267 12.7725V16.4492C130.267 17.2298 130.339 17.8019 130.484 18.165C130.666 18.6371 131.084 19.0273 131.737 19.3359C130.975 19.7535 130.394 20.1897 129.994 20.6436C129.667 21.0067 129.286 21.6154 128.851 22.4688C127.834 20.635 126.835 19.7178 125.854 19.7178C124.856 19.7178 123.848 20.635 122.831 22.4688C122.305 21.4885 121.951 20.8797 121.77 20.6436C121.37 20.1534 120.816 19.7172 120.108 19.3359C121.052 19.0453 121.524 18.1923 121.524 16.7764C121.524 15.7778 121.252 15.024 120.707 14.5156C121.288 14.788 121.806 14.9248 122.26 14.9248C122.804 14.9247 123.412 14.6794 124.084 14.1895C124.756 13.6992 125.264 13.4541 125.609 13.4541C126.081 13.4541 126.599 13.7075 127.162 14.2158V12.3096C127.162 11.9103 127.025 11.5474 126.753 11.2207C126.499 10.8757 126.19 10.7031 125.827 10.7031C124.847 10.7031 123.848 11.6203 122.831 13.4541C122.323 12.5102 121.969 11.9105 121.77 11.6562C121.406 11.1842 120.853 10.7572 120.108 10.376C120.907 9.99487 121.478 9.55927 121.823 9.06934C122.041 8.76073 122.377 8.11592 122.831 7.13574C123.775 9.1691 124.783 10.1855 125.854 10.1855C126.907 10.1855 127.907 9.16906 128.851 7.13574ZM60.5312 16.3955C60.5315 17.5936 61.4303 18.6194 63.2275 19.4727V13.3447C63.2275 12.5641 62.9456 11.8561 62.3828 11.2207C62.0924 10.8939 61.4752 10.4127 60.5312 9.77734V16.3955ZM102.703 14.1621C101.886 14.1622 101.478 14.9885 101.478 16.6406C101.478 17.4211 101.523 17.9658 101.614 18.2744C101.796 18.8734 102.177 19.1729 102.758 19.1729C103.647 19.1728 104.092 18.4557 104.092 17.0215V15.3057C103.801 14.5432 103.339 14.1621 102.703 14.1621ZM125.772 14.1621C124.956 14.1623 124.547 14.9886 124.547 16.6406C124.547 17.4211 124.593 17.9658 124.684 18.2744C124.865 18.8734 125.246 19.1728 125.827 19.1729C126.717 19.1729 127.162 18.4558 127.162 17.0215V15.3057C126.872 14.5431 126.408 14.1621 125.772 14.1621ZM27.1484 0.680664C27.7839 2.29657 28.7461 3.37719 30.0352 3.92188C28.7462 4.50285 27.7839 5.51934 27.1484 6.97168C26.5493 5.44675 25.5869 4.43026 24.2617 3.92188C25.6778 3.25009 26.6401 2.16944 27.1484 0.680664ZM51.2607 0.680664C51.8962 2.29657 52.8584 3.37719 54.1475 3.92188C52.8585 4.50283 51.8962 5.51935 51.2607 6.97168C50.6616 5.44678 49.6992 4.43029 48.374 3.92188C49.7901 3.25008 50.7524 2.16938 51.2607 0.680664Z" fill="black"/>
</svg>
