<svg width="1920" height="157" viewBox="0 0 1920 157" fill="none" xmlns="http://www.w3.org/2000/svg">
<path fill-rule="evenodd" clip-rule="evenodd" d="M838.601 -3C910.888 -3 931.453 39.3756 931.453 73.2344V79.4658C931.453 112.701 910.888 156.53 838.601 156.53H829.461C757.174 156.53 736.609 112.701 736.609 79.4658V73.2344C736.609 39.5834 757.174 -2.99989 829.461 -3H838.601ZM834.031 32.3125C790.825 32.3125 781.062 55.7851 781.062 74.8955V77.8037C781.062 96.4987 791.448 121.01 834.031 121.01C877.445 121.01 887 96.4987 887 77.8037V74.8955C887 55.7851 877.653 32.3126 834.031 32.3125Z" fill="white"/>
<path d="M106.146 104.185L156.83 -0.506836H210.215V154.038H168.463V52.877L121.518 154.038H88.0742L41.1289 52.877V154.038H0V-0.506836H56.916L106.146 104.185Z" fill="white"/>
<path d="M291.288 154.038H248.497V-0.506836H291.288V154.038Z" fill="white"/>
<path d="M372.228 117.687H466.741V154.038H329.437V-0.506836H372.228V117.687Z" fill="white"/>
<path d="M538.772 117.687H633.285V154.038H495.981V-0.506836H538.772V117.687Z" fill="white"/>
<path d="M705.316 154.038H662.525V-0.506836H705.316V154.038Z" fill="white"/>
<path d="M1097.15 98.9922V-0.506836H1138.69V154.038H1096.73L1004.5 53.916V154.038H962.752V-0.506836H1006.79L1097.15 98.9922Z" fill="white"/>
<path d="M1311.36 98.9922V-0.506836H1352.91V154.038H1310.95L1218.72 53.916V154.038H1176.97V-0.506836H1221L1311.36 98.9922Z" fill="white"/>
<path fill-rule="evenodd" clip-rule="evenodd" d="M1571.9 154.038H1525.99L1513.32 125.372H1429.82L1417.36 154.038H1374.36L1442.91 -0.506836H1500.24L1571.9 154.038ZM1443.74 93.5908H1498.99L1470.95 30.6514L1443.74 93.5908Z" fill="white"/>
<path d="M1728.25 34.8057H1668.43V154.038H1625.85V34.8057H1566.02V-0.506836H1728.25V34.8057Z" fill="white"/>
<path fill-rule="evenodd" clip-rule="evenodd" d="M1920 154.038H1874.09L1861.42 125.372H1777.92L1765.46 154.038H1722.46L1791 -0.506836H1848.34L1920 154.038ZM1791.83 93.5908H1847.09L1819.05 30.6514L1791.83 93.5908Z" fill="white"/>
</svg>
