<svg width="30" height="30" viewBox="0 0 30 30" fill="none" xmlns="http://www.w3.org/2000/svg">
<path d="M25.8871 4.56812C25.8871 4.56812 28.3154 3.62124 28.113 5.9208C28.0456 6.86769 27.4385 10.1817 26.9663 13.7664L25.3474 24.3849C25.3474 24.3849 25.2126 25.9405 23.9984 26.2111C22.7842 26.4816 20.963 25.2642 20.6257 24.9936C20.3559 24.7908 15.5667 21.7472 13.8804 20.2593C13.4082 19.8534 12.8686 19.0418 13.9478 18.0949L21.0304 11.3316C21.8399 10.5199 22.6493 8.62619 19.2766 10.9258L9.83319 17.351C9.83319 17.351 8.75394 18.0273 6.73037 17.4186L2.34589 16.0659C2.34589 16.0659 0.727007 15.0514 3.49259 14.0369C10.2379 10.8581 18.5347 7.61163 25.8871 4.56812Z" fill="white"/>
</svg>
