<svg width="30" height="30" viewBox="0 0 30 30" fill="none" xmlns="http://www.w3.org/2000/svg">
<path d="M13.3486 11.9624C9.66825 11.7848 7.11 13.097 5.67387 15.899C3.51969 20.1018 5.30004 26.9791 12.4866 26.9791C19.6733 26.9791 19.8811 20.0346 19.8811 19.3071C19.8811 18.8221 19.8811 16.1102 19.8811 11.1716C21.4183 12.1452 22.7143 12.7312 23.7691 12.9298C24.824 13.1283 25.4946 13.2163 25.7809 13.1937V9.14641C24.8053 9.02878 23.9615 8.80453 23.2497 8.47378C22.1819 7.97766 20.0647 6.60066 20.0647 4.58252C20.0661 4.59239 20.0661 4.0718 20.0647 3.02075H15.6159C15.6027 12.9058 15.6027 18.3345 15.6159 19.3071C15.6358 20.7659 14.5041 22.8065 12.2096 22.8065C9.915 22.8065 8.78332 20.7675 8.78332 19.4524C8.78332 18.6473 9.05988 17.4803 10.2031 16.6161C10.881 16.1036 11.8219 15.899 13.3486 15.899C13.3486 15.4267 13.3486 14.1145 13.3486 11.9624Z" fill="white"/>
</svg>
