<svg width="42" height="42" viewBox="0 0 42 42" fill="none" xmlns="http://www.w3.org/2000/svg">
<g clip-path="url(#clip0_46_222)">
<path d="M26.6768 29.25H15.3232L13.8496 15H15.3574L16.6768 27.75H25.3232L26.6426 15H28.1504L26.6768 29.25Z" fill="#141414"/>
<path d="M21 11C22.933 11 24.5 12.567 24.5 14.5C24.5 14.6698 24.4872 14.8367 24.4639 15H22.9346C22.9758 14.84 23 14.6729 23 14.5C23 13.3954 22.1046 12.5 21 12.5C19.8954 12.5 19 13.3954 19 14.5C19 14.6729 19.0242 14.84 19.0654 15H17.5361C17.5128 14.8367 17.5 14.6698 17.5 14.5C17.5 12.567 19.067 11 21 11Z" fill="#141414"/>
</g>
<defs>
<clipPath id="clip0_46_222">
<rect width="15" height="18.75" fill="white" transform="translate(13.5 11)"/>
</clipPath>
</defs>
</svg>
